<svg width="131.191" height="21.299" viewBox="0 0 131.191 21.299" xmlns="http://www.w3.org/2000/svg"><g id="svgGroup" stroke-linecap="round" fill-rule="evenodd" font-size="9pt" stroke="#000" stroke-width="0" fill="#fcfcfc" style="stroke:#000;stroke-width:0;fill:#fcfcfc"><path d="M 14.824 21.006 L 12.935 21.006 L 12.935 6.606 L 12.803 7.5 L 7.925 21.006 L 6.929 21.006 L 2.007 7.5 L 1.89 6.606 L 1.89 21.006 L 0 21.006 L 0 0 L 0.981 0 L 7.354 17.227 L 7.412 18.003 L 7.471 17.227 L 13.828 0 L 14.824 0 L 14.824 21.006 Z M 90.923 21.006 L 79.102 21.006 L 79.102 20.112 L 88.462 1.802 L 79.395 1.802 L 79.395 0 L 90.923 0 L 90.923 0.908 L 81.563 19.204 L 90.923 19.204 L 90.923 21.006 Z M 117.568 21.006 L 115.767 21.006 L 115.767 10.02 A 2.546 2.546 0 0 0 115.562 9.001 A 2.627 2.627 0 0 0 115.005 8.174 Q 114.653 7.822 114.177 7.617 A 2.546 2.546 0 0 0 113.159 7.412 L 111.958 7.412 A 2.546 2.546 0 0 0 110.94 7.617 A 2.627 2.627 0 0 0 110.112 8.174 Q 109.761 8.525 109.556 9.001 A 2.546 2.546 0 0 0 109.351 10.02 L 109.351 21.006 L 107.549 21.006 L 107.549 6.006 L 108.149 6.006 L 109.131 7.529 Q 109.746 6.694 110.676 6.204 A 4.281 4.281 0 0 1 112.705 5.713 L 113.159 5.713 A 4.316 4.316 0 0 1 114.873 6.057 Q 115.679 6.401 116.279 7.002 A 4.427 4.427 0 0 1 117.224 8.408 A 4.316 4.316 0 0 1 117.568 10.122 L 117.568 21.006 Z M 64.79 21.299 L 63.589 21.299 A 4.316 4.316 0 0 1 61.875 20.955 Q 61.069 20.61 60.469 20.01 A 4.427 4.427 0 0 1 59.524 18.604 A 4.316 4.316 0 0 1 59.18 16.89 L 59.18 10.122 A 4.316 4.316 0 0 1 59.524 8.408 Q 59.868 7.603 60.469 7.002 A 4.427 4.427 0 0 1 61.875 6.057 A 4.316 4.316 0 0 1 63.589 5.713 L 64.79 5.713 A 4.316 4.316 0 0 1 66.504 6.057 Q 67.31 6.401 67.91 7.002 A 4.427 4.427 0 0 1 68.855 8.408 A 4.316 4.316 0 0 1 69.199 10.122 L 69.199 13.652 L 60.981 13.652 L 60.981 16.992 A 2.546 2.546 0 0 0 61.187 18.01 A 2.627 2.627 0 0 0 61.743 18.838 Q 62.095 19.189 62.571 19.395 A 2.546 2.546 0 0 0 63.589 19.6 L 64.79 19.6 A 2.546 2.546 0 0 0 65.808 19.395 A 2.627 2.627 0 0 0 66.636 18.838 Q 66.987 18.486 67.192 18.01 A 2.546 2.546 0 0 0 67.397 16.992 L 67.397 15.996 L 69.199 16.289 L 69.199 16.89 A 4.316 4.316 0 0 1 68.855 18.604 Q 68.511 19.409 67.91 20.01 A 4.427 4.427 0 0 1 66.504 20.955 A 4.316 4.316 0 0 1 64.79 21.299 Z M 126.782 21.299 L 125.581 21.299 A 4.316 4.316 0 0 1 123.867 20.955 Q 123.062 20.61 122.461 20.01 A 4.427 4.427 0 0 1 121.516 18.604 A 4.316 4.316 0 0 1 121.172 16.89 L 121.172 10.122 A 4.316 4.316 0 0 1 121.516 8.408 Q 121.86 7.603 122.461 7.002 A 4.427 4.427 0 0 1 123.867 6.057 A 4.316 4.316 0 0 1 125.581 5.713 L 126.782 5.713 A 4.316 4.316 0 0 1 128.496 6.057 Q 129.302 6.401 129.902 7.002 A 4.427 4.427 0 0 1 130.847 8.408 A 4.316 4.316 0 0 1 131.191 10.122 L 131.191 13.652 L 122.974 13.652 L 122.974 16.992 A 2.546 2.546 0 0 0 123.179 18.01 A 2.627 2.627 0 0 0 123.735 18.838 Q 124.087 19.189 124.563 19.395 A 2.546 2.546 0 0 0 125.581 19.6 L 126.782 19.6 A 2.546 2.546 0 0 0 127.8 19.395 A 2.627 2.627 0 0 0 128.628 18.838 Q 128.979 18.486 129.185 18.01 A 2.546 2.546 0 0 0 129.39 16.992 L 129.39 15.996 L 131.191 16.289 L 131.191 16.89 A 4.316 4.316 0 0 1 130.847 18.604 Q 130.503 19.409 129.902 20.01 A 4.427 4.427 0 0 1 128.496 20.955 A 4.316 4.316 0 0 1 126.782 21.299 Z M 37.954 21.299 L 36.753 21.299 A 4.316 4.316 0 0 1 35.039 20.955 Q 34.233 20.61 33.633 20.01 A 4.427 4.427 0 0 1 32.688 18.604 A 4.316 4.316 0 0 1 32.344 16.89 L 32.344 0 L 34.146 0 L 34.146 7.266 A 4.341 4.341 0 0 1 35.625 6.123 A 4.303 4.303 0 0 1 37.437 5.713 A 4.95 4.95 0 0 1 37.5 5.713 L 37.954 5.713 A 4.316 4.316 0 0 1 39.668 6.057 Q 40.474 6.401 41.074 7.002 A 4.427 4.427 0 0 1 42.019 8.408 A 4.316 4.316 0 0 1 42.363 10.122 L 42.363 16.89 A 4.316 4.316 0 0 1 42.019 18.604 Q 41.675 19.409 41.074 20.01 A 4.427 4.427 0 0 1 39.668 20.955 A 4.316 4.316 0 0 1 37.954 21.299 Z M 54.976 21.006 L 53.174 21.006 L 53.174 0 L 54.976 0 L 54.976 21.006 Z M 24.331 21.299 L 23.13 21.299 A 4.316 4.316 0 0 1 21.416 20.955 Q 20.61 20.61 20.01 20.01 A 4.427 4.427 0 0 1 19.065 18.604 A 4.316 4.316 0 0 1 18.721 16.89 L 18.721 10.122 A 4.316 4.316 0 0 1 19.065 8.408 Q 19.409 7.603 20.01 7.002 A 4.427 4.427 0 0 1 21.416 6.057 A 4.316 4.316 0 0 1 23.13 5.713 L 24.331 5.713 A 4.316 4.316 0 0 1 26.045 6.057 Q 26.851 6.401 27.451 7.002 A 4.427 4.427 0 0 1 28.396 8.408 A 4.316 4.316 0 0 1 28.74 10.122 L 28.74 16.89 A 4.316 4.316 0 0 1 28.396 18.604 Q 28.052 19.409 27.451 20.01 A 4.427 4.427 0 0 1 26.045 20.955 A 4.316 4.316 0 0 1 24.331 21.299 Z M 99.536 21.299 L 98.335 21.299 A 4.316 4.316 0 0 1 96.621 20.955 Q 95.815 20.61 95.215 20.01 A 4.427 4.427 0 0 1 94.27 18.604 A 4.316 4.316 0 0 1 93.926 16.89 L 93.926 10.122 A 4.316 4.316 0 0 1 94.27 8.408 Q 94.614 7.603 95.215 7.002 A 4.427 4.427 0 0 1 96.621 6.057 A 4.316 4.316 0 0 1 98.335 5.713 L 99.536 5.713 A 4.316 4.316 0 0 1 101.25 6.057 Q 102.056 6.401 102.656 7.002 A 4.427 4.427 0 0 1 103.601 8.408 A 4.316 4.316 0 0 1 103.945 10.122 L 103.945 16.89 A 4.316 4.316 0 0 1 103.601 18.604 Q 103.257 19.409 102.656 20.01 A 4.427 4.427 0 0 1 101.25 20.955 A 4.316 4.316 0 0 1 99.536 21.299 Z M 48.369 21.006 L 46.567 21.006 L 46.567 6.006 L 48.369 6.006 L 48.369 21.006 Z M 26.938 16.992 L 26.938 10.02 A 2.546 2.546 0 0 0 26.733 9.001 A 2.627 2.627 0 0 0 26.177 8.174 Q 25.825 7.822 25.349 7.617 A 2.546 2.546 0 0 0 24.331 7.412 L 23.13 7.412 A 2.546 2.546 0 0 0 22.112 7.617 A 2.627 2.627 0 0 0 21.284 8.174 Q 20.933 8.525 20.728 9.001 A 2.546 2.546 0 0 0 20.522 10.02 L 20.522 16.992 A 2.546 2.546 0 0 0 20.728 18.01 A 2.627 2.627 0 0 0 21.284 18.838 Q 21.636 19.189 22.112 19.395 A 2.546 2.546 0 0 0 23.13 19.6 L 24.331 19.6 A 2.546 2.546 0 0 0 25.349 19.395 A 2.627 2.627 0 0 0 26.177 18.838 Q 26.528 18.486 26.733 18.01 A 2.546 2.546 0 0 0 26.938 16.992 Z M 40.562 16.992 L 40.562 10.02 A 2.546 2.546 0 0 0 40.356 9.001 A 2.627 2.627 0 0 0 39.8 8.174 Q 39.448 7.822 38.972 7.617 A 2.546 2.546 0 0 0 37.954 7.412 L 36.753 7.412 A 2.546 2.546 0 0 0 35.735 7.617 A 2.627 2.627 0 0 0 34.907 8.174 Q 34.556 8.525 34.351 9.001 A 2.546 2.546 0 0 0 34.146 10.02 L 34.146 16.992 A 2.546 2.546 0 0 0 34.351 18.01 A 2.627 2.627 0 0 0 34.907 18.838 Q 35.259 19.189 35.735 19.395 A 2.546 2.546 0 0 0 36.753 19.6 L 37.954 19.6 A 2.546 2.546 0 0 0 38.972 19.395 A 2.627 2.627 0 0 0 39.8 18.838 Q 40.151 18.486 40.356 18.01 A 2.546 2.546 0 0 0 40.562 16.992 Z M 102.144 16.992 L 102.144 10.02 A 2.546 2.546 0 0 0 101.938 9.001 A 2.627 2.627 0 0 0 101.382 8.174 Q 101.03 7.822 100.554 7.617 A 2.546 2.546 0 0 0 99.536 7.412 L 98.335 7.412 A 2.546 2.546 0 0 0 97.317 7.617 A 2.627 2.627 0 0 0 96.489 8.174 Q 96.138 8.525 95.933 9.001 A 2.546 2.546 0 0 0 95.728 10.02 L 95.728 16.992 A 2.546 2.546 0 0 0 95.933 18.01 A 2.627 2.627 0 0 0 96.489 18.838 Q 96.841 19.189 97.317 19.395 A 2.546 2.546 0 0 0 98.335 19.6 L 99.536 19.6 A 2.546 2.546 0 0 0 100.554 19.395 A 2.627 2.627 0 0 0 101.382 18.838 Q 101.733 18.486 101.938 18.01 A 2.546 2.546 0 0 0 102.144 16.992 Z M 67.397 12.246 L 67.397 10.02 A 2.546 2.546 0 0 0 67.192 9.001 A 2.627 2.627 0 0 0 66.636 8.174 Q 66.284 7.822 65.808 7.617 A 2.546 2.546 0 0 0 64.79 7.412 L 63.589 7.412 A 2.546 2.546 0 0 0 62.571 7.617 A 2.627 2.627 0 0 0 61.743 8.174 Q 61.392 8.525 61.187 9.001 A 2.546 2.546 0 0 0 60.981 10.02 L 60.981 12.246 L 67.397 12.246 Z M 129.39 12.246 L 129.39 10.02 A 2.546 2.546 0 0 0 129.185 9.001 A 2.627 2.627 0 0 0 128.628 8.174 Q 128.276 7.822 127.8 7.617 A 2.546 2.546 0 0 0 126.782 7.412 L 125.581 7.412 A 2.546 2.546 0 0 0 124.563 7.617 A 2.627 2.627 0 0 0 123.735 8.174 Q 123.384 8.525 123.179 9.001 A 2.546 2.546 0 0 0 122.974 10.02 L 122.974 12.246 L 129.39 12.246 Z M 48.516 2.402 L 46.421 2.402 L 46.421 0 L 48.516 0 L 48.516 2.402 Z" vector-effect="non-scaling-stroke"/></g></svg>